<svg width="513" height="478" viewBox="0 0 513 478" fill="none" xmlns="http://www.w3.org/2000/svg">
<path d="M500.461 358.339C435.94 347.706 406.543 282.452 403.403 275.045C403.343 274.9 403.096 274.379 403.028 274.226C399.794 267.655 398.992 262.322 400.681 258.388C404.069 250.375 418.422 245.835 427.612 242.926C430.198 242.09 432.621 241.322 434.55 240.554C453.136 233.215 462.463 223.837 462.266 212.659C462.087 203.793 455.132 195.652 444.832 192.008C441.282 190.523 437.058 189.713 432.945 189.713C430.103 189.713 425.879 190.114 421.843 192C413.975 195.678 406.978 197.658 401.687 197.888C399.332 197.794 397.548 197.402 396.26 196.966C396.422 194.176 396.61 191.308 396.789 188.381L396.883 186.888C399.076 152.081 401.798 108.765 390.21 82.807C355.94 5.973 283.211 0 261.732 0L251.714 0.0939999C230.278 0.0939999 157.685 6.059 123.449 82.85C111.835 108.868 114.583 152.166 116.785 186.965C116.998 190.387 117.212 193.723 117.399 196.975C115.931 197.478 113.815 197.922 110.939 197.922C104.778 197.922 97.3968 195.925 89.0078 192C76.8818 186.317 54.7128 193.911 51.7168 209.647C50.0868 218.163 53.5178 230.443 79.0998 240.555C81.0878 241.34 83.5888 242.142 86.6608 243.115C95.2368 245.837 109.59 250.385 112.986 258.381C114.667 262.332 113.865 267.665 110.324 274.893C109.061 277.837 78.6738 347.017 11.5588 358.067C4.59578 359.21 -0.37122 365.389 0.02178 372.42C0.13278 374.374 0.58478 376.337 1.42078 378.317C7.06178 391.51 28.5398 400.666 68.9708 407.083C69.8578 409.378 70.8908 414.089 71.4798 416.82C72.3328 420.72 73.2288 424.747 74.4498 428.92C75.6788 433.144 79.3308 440.227 89.8948 440.227C93.4698 440.227 97.6088 439.416 102.106 438.546C108.574 437.275 117.415 435.551 128.38 435.551C134.464 435.551 140.796 436.097 147.205 437.155C159.297 439.16 169.904 446.661 182.209 455.357C200.325 468.166 216.795 477.962 249.733 477.962C250.603 477.962 251.465 477.936 252.31 477.877C253.53 477.937 254.759 477.962 256.005 477.962C284.856 477.962 310.251 470.342 331.499 455.332C343.241 447.021 354.334 439.17 366.434 437.156C372.86 436.098 379.2 435.552 385.284 435.552C395.797 435.552 404.185 436.9 411.669 438.368C416.729 439.366 420.689 439.844 424.341 439.844C431.714 439.844 437.141 435.791 439.215 428.717C440.41 424.604 441.306 420.696 442.176 416.702C442.637 414.577 443.746 409.491 444.685 407.042C484.536 400.702 504.888 391.904 510.52 378.745C511.365 376.851 511.86 374.845 511.996 372.712C512.374 365.678 507.424 359.5 500.461 358.339Z" fill="#F7F7F7"/>
</svg>
